<svg version="1.2" xmlns="http://www.w3.org/2000/svg" viewBox="0 0 911 909" width="911" height="909"><style>.a{fill:#010101}.b{fill:#f5eddc}.c{fill:#eb1d36}</style><path class="a" d="m0 454.1c0.6-252 204.8-455.2 456.4-454.1 251.8 1 454.2 204.2 453.7 455.3-0.5 251.2-204.7 454.5-455.6 453.6-251.9-0.8-455.1-204.2-454.5-454.8z"/><path class="b" d="m173 488.7c35.7 0 71.4 0.2 107.1-0.2 7.3-0.1 10.2 2 12 9.3 18.8 73.7 86 125.2 163 125.4 18.5 0 36.9-3 54.4-8.9 17.5-5.9 34-14.7 48.6-25.9 14.7-11.3 27.4-24.9 37.7-40.3 10.2-15.4 17.9-32.4 22.6-50.2 2-7.5 4.8-9.4 12-9.3q107.7 0.3 215.4 0c8 0 9.5 1.5 8.6 9.9-17.1 163-136.1 305.5-302.5 345.1-136.2 32.5-259 1.9-364.5-90.7-72-63.1-113.7-143.6-129.5-237.7-4.4-26.5-4.5-26.5 22.7-26.5z"/><path class="c" d="m736.7 419.9c-34.9 0-69.9-0.3-104.8 0.2-8.4 0.1-11.7-2.7-13.9-10.7-19.8-69.3-80.6-119.6-148.8-123.3-76.7-4.3-141.5 35.2-170.6 104.1q-1.3 3.1-2.4 6.3c-8 23.4-8 23.4-33.4 23.4-64.7 0-129.3-0.2-193.9 0.1-9.6 0-13.8-0.9-12.1-12.7 22.8-155.7 106.2-266.1 251.6-325 156.8-63.5 330.1-21.4 444 103.1 57 62.5 90.4 136.3 101 220.4 1.7 14.1 1.6 14.1-13 14.1q-51.8 0-103.7 0z"/><path class="b" d="m456.1 572.6c-64.1 0.6-118.5-51.9-119-114.9-0.5-67.2 51.3-121 117.1-121.4 64.8-0.4 118.4 52.3 119.3 117.2 0.8 64.6-52.4 118.6-117.4 119.1z"/><path class="a" d="m456.1 396.6c32.7 0.3 57.5 26.2 57.1 59.4-0.3 31.8-26.4 56.8-59 56.5-7.6 0-15.1-1.6-22.1-4.5-7-3-13.3-7.3-18.6-12.7-5.4-5.5-9.6-11.9-12.4-18.9-2.9-7.1-4.3-14.6-4.2-22.2 0.4-32.8 26.3-58 59.2-57.6z"/></svg>