<svg version="1.2" xmlns="http://www.w3.org/2000/svg" viewBox="0 0 1000 1000" width="1000" height="1000"><style>.a{fill:#fff}</style><path class="a" d="m494.2 8.5c14.1-0.7 73.6 5.1 97.6 9.8 37.7 6.8 83.4 22.1 119.8 39.8 151.1 73.1 252.7 214 274.5 380.9 2 15.8 3.7 30.4 3.7 32.3 0 2.9-17.3 3.4-129 2.9l-129.3-0.7-4.1-20.6c-9.7-47.9-34.3-91.4-70.7-125.1-49.1-45.2-118.8-67.8-184.4-59.6-102.3 12.9-182.4 88.7-201.9 191.2l-2.9 15.3h-128.7-128.8l1.5-21.3c5.3-72 34-154.1 76.5-219.2 23.3-35.7 42-58.3 74.1-88.9 81.4-78.2 188.5-126.3 299-134.3 14.9-1.2 29.7-2.2 33.1-2.5z"/><path fill-rule="evenodd" class="a" d="m646 395.8c23.1 32.5 30.6 54.9 32.1 97.2 1.4 38.8-2 56.1-18 88.6-9.5 19-15.1 26.8-32.3 44-23.8 24.1-42.8 36-74.1 46.6-19.7 6.6-24.8 7.3-52.2 7.6-35.3 0-51.5-3.7-81.4-18-46.2-22.3-81.4-65.6-95.3-116.6-5.8-21.6-5.8-68.3 0-89.9 19-69.7 79.7-123.9 150.4-133.6 64.9-9 132.9 20.4 170.8 74.1zm-204.5 52.9c-22.1 23.9-26.3 59.3-10.5 88.9 8.5 15.8 18.2 25.1 36.5 34.5 8.9 4.7 14.8 5.6 31.5 5.9 17.8 0 22.6-1 34.5-6.8 31.9-15.6 50.3-51.8 43.3-85.1-5.9-28.6-28.5-53.4-55.9-60.9-30.4-8.5-57.1-0.5-79.4 23.5z"/><path class="a" d="m10 528.2h129 129l1.7 9c16 93.5 82.1 166.1 173.4 190.4 17.1 4.6 27 5.6 55.9 5.6 38.6 0 53.7-2.7 87.7-15.8 69.5-26.7 128.5-98.6 140.9-171.7l3.2-17.5h129.5 129.7l-1.5 15c-11.9 118.3-60 221.1-142.1 303.5-40.8 41-77.5 67.5-127.5 92.8-171.3 86-377.8 64.1-526-55.9-20.4-16.5-59.5-55.6-76-76-57.3-70.3-98.6-172-105.4-259.5z"/></svg>